<?xml version="1.0" standalone="no"?>
<!DOCTYPE svg PUBLIC "-//W3C//DTD SVG 20010904//EN"
 "http://www.w3.org/TR/2001/REC-SVG-20010904/DTD/svg10.dtd">
<svg version="1.0" xmlns="http://www.w3.org/2000/svg"
 width="1366.000000pt" height="1024.000000pt" viewBox="0 0 1366.000000 1024.000000"
 preserveAspectRatio="xMidYMid meet">

<g transform="translate(0.000000,1024.000000) scale(0.100000,-0.100000)"
fill="#000000" stroke="none">
<path d="M422 6880 c-134 -13 -273 -38 -350 -63 l-67 -22 -3 -58 -3 -58 38 19
c110 55 287 90 508 99 148 6 329 -4 304 -17 -8 -4 -77 -26 -154 -50 -178 -54
-338 -120 -537 -223 l-158 -82 0 -138 0 -138 77 62 c43 35 105 86 138 114 33
28 117 90 187 137 134 91 132 90 458 187 146 44 313 81 364 81 70 0 291 -71
447 -144 246 -115 560 -309 692 -428 l47 -43 -55 -63 c-69 -80 -109 -164 -130
-277 -27 -142 -24 -271 8 -391 37 -142 83 -268 122 -339 48 -88 235 -359 295
-426 92 -105 348 -312 490 -396 52 -31 174 -72 275 -91 l90 -18 3 -47 3 -47
47 46 c92 89 212 130 352 121 91 -7 233 -45 340 -92 68 -30 219 -122 257 -158
13 -11 26 -18 29 -14 4 3 23 57 44 119 20 62 54 148 73 191 20 44 53 125 73
180 20 56 56 146 81 200 102 230 132 378 115 582 -22 255 -61 415 -145 590
-80 169 -124 245 -222 382 -160 225 -305 358 -545 500 -131 77 -164 89 -295
104 -130 15 -230 2 -324 -41 -92 -43 -208 -160 -267 -267 -25 -46 -47 -83 -50
-83 -3 0 -29 20 -57 44 -132 111 -328 249 -421 296 -59 30 -140 60 -196 74
-365 91 -498 105 -851 87 -134 -6 -278 -16 -320 -21 -58 -8 -98 -7 -175 6
-118 18 -497 27 -632 14z m1738 -123 c52 -14 133 -39 180 -56 107 -38 421
-183 463 -215 255 -187 251 -185 259 -227 3 -15 0 -36 -6 -47 -11 -20 -12 -20
-65 13 -52 33 -59 34 -145 34 -93 0 -233 -26 -284 -53 -30 -15 -44 -7 -467
249 -165 99 -424 231 -554 281 -40 15 -69 30 -63 32 41 13 170 20 362 18 207
-2 233 -5 320 -29z"/>
<path d="M6351 5733 c-21 -4 -23 -9 -17 -41 3 -21 6 -85 6 -144 l0 -108 50 0
c122 0 176 69 112 141 -27 30 -28 34 -14 61 36 73 -24 112 -137 91z m87 -75
c-2 -11 -13 -25 -25 -29 -21 -8 -23 -5 -23 25 0 40 7 48 32 35 12 -6 18 -19
16 -31z m30 -100 c7 -7 12 -18 12 -25 0 -22 -38 -53 -65 -53 -23 0 -25 4 -25
45 0 44 1 45 33 45 18 0 38 -5 45 -12z"/>
<path d="M6944 5694 c5 -41 4 -45 -12 -39 -61 25 -111 16 -135 -25 -27 -44
-33 -120 -13 -158 19 -36 45 -43 146 -39 l65 2 -2 123 c-2 100 0 124 12 129 8
3 15 16 15 29 0 21 -4 24 -41 24 l-42 0 7 -46z m-16 -101 c6 -9 12 -31 12 -49
0 -57 -64 -83 -110 -46 -20 16 -21 21 -10 62 7 25 17 48 24 53 17 11 69 -1 84
-20z"/>
<path d="M7540 5705 c0 -31 -3 -35 -26 -35 -22 0 -25 -4 -22 -27 2 -20 9 -29
26 -31 19 -3 22 -9 22 -50 0 -26 8 -63 18 -82 18 -38 41 -46 97 -36 28 6 31 9
27 36 -5 34 -3 33 -38 20 -40 -15 -54 2 -54 66 l0 54 40 0 c38 0 40 1 40 31 0
31 0 31 -40 25 l-40 -6 0 35 c0 31 -3 35 -25 35 -22 0 -25 -4 -25 -35z"/>
<path d="M7208 5675 c-3 -3 -35 -7 -72 -8 -77 -3 -102 -21 -116 -82 -19 -83
66 -155 146 -125 26 10 26 10 20 -22 -3 -18 -11 -37 -16 -42 -13 -13 -83 -10
-110 4 -23 13 -50 -1 -50 -26 0 -14 91 -44 134 -44 40 0 76 21 84 49 11 42 9
294 -4 298 -5 2 -13 1 -16 -2z m-34 -61 c9 -9 16 -32 16 -55 0 -36 -2 -39 -27
-40 -71 -3 -93 9 -93 52 0 49 69 78 104 43z"/>
<path d="M6540 5588 c6 -87 18 -121 50 -138 24 -13 76 -13 101 0 13 7 19 7 19
0 0 -5 14 -10 31 -10 24 0 30 3 25 16 -3 9 -6 60 -6 115 0 99 0 99 -25 99 -24
0 -25 -3 -25 -55 0 -31 -7 -69 -16 -86 -15 -30 -49 -50 -71 -42 -19 7 -33 61
-33 124 0 58 -1 59 -27 59 l-28 0 5 -82z"/>
<path d="M7304 5651 c-59 -36 -69 -131 -19 -185 19 -21 33 -26 71 -26 48 0
104 21 126 47 10 12 9 18 -6 29 -16 11 -22 11 -44 -6 -25 -20 -96 -28 -106
-12 -3 5 28 32 69 61 41 29 75 55 75 59 -1 48 -108 69 -166 33z m86 -29 c0
-10 -80 -56 -86 -49 -11 11 11 38 40 46 41 12 46 12 46 3z"/>
<path d="M7816 5424 c-4 -9 -4 -19 -1 -22 6 -6 35 18 35 29 0 16 -28 10 -34
-7z"/>
<path d="M7510 5406 c0 -9 -4 -16 -10 -16 -5 0 -10 -7 -10 -15 0 -8 5 -15 10
-15 6 0 10 -13 10 -29 0 -40 15 -48 91 -50 l66 -1 -1 36 c-1 22 4 39 12 41 8
3 12 -8 12 -36 0 -31 4 -41 16 -41 12 0 15 9 12 37 -2 22 2 38 9 40 8 3 13
-11 15 -38 2 -23 9 -44 16 -47 15 -5 17 94 1 104 -9 5 -66 8 -117 5 -10 -1
-12 -12 -6 -47 5 -34 4 -45 -5 -40 -6 4 -11 22 -11 39 0 45 -10 77 -24 77 -8
0 -11 -17 -8 -54 l4 -55 -29 3 c-22 2 -29 9 -31 30 -3 21 1 26 17 26 12 0 21
7 21 15 0 8 -9 15 -20 15 -11 0 -19 5 -17 11 1 6 -4 14 -10 16 -7 3 -13 -2
-13 -11z"/>
<path d="M7318 5376 c-26 -13 -36 -59 -17 -82 15 -19 63 -18 79 1 16 19 5 34
-12 17 -13 -13 -48 -16 -48 -4 0 4 14 16 30 25 17 10 30 24 30 31 0 19 -34 26
-62 12z m22 -20 c0 -2 -7 -6 -15 -10 -8 -3 -15 -1 -15 4 0 6 7 10 15 10 8 0
15 -2 15 -4z"/>
<path d="M7414 5375 c-19 -15 -18 -16 9 -38 33 -27 35 -39 5 -35 -11 2 -23 -3
-25 -9 -8 -23 65 -16 77 7 9 17 6 23 -22 40 l-33 20 28 0 c29 0 36 14 11 24
-23 9 -28 8 -50 -9z"/>
<path d="M7808 5376 c-26 -13 -36 -59 -17 -82 15 -19 63 -18 79 1 16 19 5 34
-12 17 -13 -13 -48 -16 -48 -4 0 4 14 16 30 25 17 10 30 24 30 31 0 19 -34 26
-62 12z m22 -20 c0 -2 -7 -6 -15 -10 -8 -3 -15 -1 -15 4 0 6 7 10 15 10 8 0
15 -2 15 -4z"/>
<path d="M8228 4726 c-14 -33 -10 -37 53 -47 102 -16 177 -96 186 -196 6 -70
-12 -119 -57 -157 -34 -28 -46 -31 -83 -17 -32 12 -42 3 -20 -21 20 -22 73
-24 113 -3 40 21 68 59 85 119 23 78 7 140 -61 233 l-16 23 38 -14 c22 -7 138
-55 259 -105 120 -51 253 -101 295 -112 107 -29 270 -36 343 -15 65 19 131 75
143 120 10 42 -13 103 -56 150 -38 40 -40 41 -105 41 -61 0 -69 -3 -91 -28
-51 -59 -12 -147 65 -147 27 0 48 27 33 42 -9 9 -15 9 -23 1 -30 -30 -80 28
-59 67 28 53 96 54 151 2 33 -31 42 -46 46 -83 4 -38 1 -50 -21 -76 -42 -50
-104 -68 -221 -66 -114 2 -212 24 -343 79 -294 121 -457 184 -527 203 -44 12
-88 24 -97 27 -12 4 -22 -3 -30 -20z"/>
<path d="M12035 4591 c-34 -14 -74 -62 -86 -101 -14 -47 -2 -87 35 -114 25
-19 29 -19 54 -5 15 8 28 25 30 37 4 27 -14 29 -21 2 -12 -44 -77 -6 -77 45 0
31 36 82 69 100 41 21 79 19 125 -8 89 -50 118 -201 62 -318 -41 -87 -86 -140
-178 -206 -83 -60 -189 -104 -321 -133 -123 -27 -476 -21 -577 10 -25 8 -48
28 -80 70 -86 114 -298 255 -504 335 -145 57 -205 65 -273 36 -67 -30 -97 -70
-90 -125 2 -22 6 -47 8 -54 3 -11 -20 -13 -116 -12 -337 3 -538 -93 -858 -413
-66 -65 -117 -121 -114 -123 3 -3 19 1 35 10 16 8 52 20 78 26 42 10 58 22
123 92 41 44 99 99 129 122 54 41 198 126 215 126 5 0 -10 -21 -32 -46 -22
-26 -52 -70 -66 -99 -26 -53 -58 -156 -50 -163 2 -2 43 -13 92 -23 48 -11 130
-38 180 -61 83 -36 101 -49 170 -122 78 -82 157 -210 197 -318 20 -54 10 -51
204 -68 76 -7 213 -9 355 -5 187 5 252 3 337 -10 152 -23 316 -63 388 -96 34
-15 62 -25 62 -22 0 3 -22 58 -50 123 -27 65 -50 121 -50 124 0 4 -24 68 -54
144 -29 75 -64 166 -76 202 -28 80 -87 202 -123 255 -33 48 -24 53 62 36 95
-18 302 -33 376 -26 249 22 480 151 605 335 49 73 60 109 60 194 -1 111 -47
208 -115 240 -35 17 -107 20 -140 7z"/>
<path d="M7003 3782 l-52 -14 -52 -122 c-70 -165 -164 -451 -249 -754 -38
-140 -70 -255 -70 -257 0 -5 70 -25 86 -25 7 0 28 63 48 143 118 468 137 530
260 831 48 115 85 210 84 211 -2 1 -26 -4 -55 -13z"/>
<path d="M3267 3444 c-4 -4 -7 -63 -7 -131 l0 -123 25 0 c23 0 25 4 25 44 0
37 4 45 23 50 51 14 57 9 57 -44 0 -47 2 -50 25 -50 l25 0 0 131 0 130 -27 -3
c-27 -3 -28 -5 -25 -56 l4 -53 -39 3 -38 3 0 50 c0 43 -3 50 -20 53 -12 2 -24
0 -28 -4z"/>
<path d="M3890 3421 c0 -28 -3 -30 -42 -33 l-43 -3 -3 -56 c-2 -43 -8 -61 -26
-78 -43 -40 -66 -11 -66 87 0 49 -2 52 -25 52 -24 0 -25 -2 -25 -65 0 -39 6
-78 15 -94 18 -36 65 -54 102 -40 19 7 28 6 33 -2 4 -6 16 -9 26 -7 17 3 19
13 18 76 -2 64 0 72 17 72 15 0 19 -7 19 -34 0 -76 45 -126 97 -109 20 7 28
16 28 34 0 21 -5 24 -35 24 -35 0 -35 0 -38 48 l-3 47 35 0 c32 0 36 3 36 25
0 25 -7 29 -47 25 -19 -1 -23 4 -23 29 0 26 -4 31 -25 31 -21 0 -25 -5 -25
-29z"/>
<path d="M4442 3393 c-10 -4 -12 -28 -8 -102 4 -72 3 -84 -4 -46 -4 28 -9 72
-9 98 -1 44 -3 48 -23 45 -20 -3 -23 -10 -26 -59 -2 -43 -8 -61 -26 -78 -43
-40 -66 -11 -66 87 0 49 -2 52 -25 52 -24 0 -25 -2 -25 -65 0 -39 6 -78 15
-94 18 -36 65 -54 102 -40 16 6 29 6 32 1 3 -6 31 -9 61 -8 l55 1 5 75 c4 60
8 74 20 71 35 -8 45 -5 48 16 4 25 -29 48 -59 40 -10 -3 -22 -1 -25 4 -6 10
-21 11 -42 2z"/>
<path d="M3473 3366 c-27 -23 -27 -25 -10 -44 12 -13 15 -22 8 -27 -6 -3 -11
-22 -11 -40 0 -57 62 -81 133 -50 13 5 17 3 15 -6 -2 -9 7 -15 23 -17 26 -3
27 -2 22 45 -8 92 -14 115 -38 139 -34 34 -103 33 -142 0z m106 -30 c10 -12 3
-15 -39 -18 -27 -1 -50 -2 -50 -1 0 5 56 32 66 33 6 0 17 -6 23 -14z m-12 -82
c-16 -9 -35 -13 -43 -10 -26 10 -4 26 34 26 l37 -1 -28 -15z"/>
<path d="M4085 3381 c-79 -34 -77 -161 3 -192 32 -13 88 1 124 30 22 19 22 21
6 37 -17 17 -18 17 -37 0 -13 -12 -31 -16 -57 -14 l-38 3 58 38 c63 42 76 61
54 84 -18 18 -85 26 -113 14z m45 -46 c0 -2 -14 -12 -31 -20 -30 -16 -30 -16
-19 4 9 18 50 31 50 16z"/>
<path d="M8804 2961 c-78 -48 -86 -182 -14 -238 26 -21 104 -16 135 8 16 13
30 18 33 12 11 -16 48 -33 72 -33 36 0 81 30 95 63 l13 32 7 -27 c10 -38 38
-60 80 -60 20 0 39 3 42 6 3 3 12 1 19 -5 18 -15 57 -1 50 18 -3 8 -6 53 -6
99 0 83 0 84 -25 84 -24 0 -25 -3 -25 -55 0 -46 -4 -60 -25 -80 -13 -14 -29
-25 -34 -25 -19 0 -31 39 -31 99 0 61 0 61 -29 61 -29 0 -30 -1 -24 -37 l5
-38 -21 32 c-51 80 -183 38 -183 -60 0 -23 -5 -33 -16 -34 -10 -1 -29 -5 -44
-8 -66 -17 -105 23 -87 88 5 19 18 42 30 53 17 15 24 16 52 6 26 -10 34 -9 47
4 13 14 13 17 -9 35 -29 24 -67 24 -107 0z m274 -103 c27 -27 0 -98 -38 -98
-22 0 -50 36 -50 65 0 28 19 45 50 45 14 0 31 -5 38 -12z"/>
<path d="M9326 2971 c-8 -12 3 -41 15 -41 4 0 10 -48 11 -107 l3 -108 33 -3
c38 -4 52 19 33 51 -7 11 -15 64 -18 119 l-6 98 -33 0 c-18 0 -35 -4 -38 -9z"/>
<path d="M9815 2921 c-40 -6 -40 -6 -37 -48 4 -46 -17 -97 -44 -107 -30 -12
-46 17 -48 86 -1 61 -2 63 -28 66 -28 3 -28 3 -28 -58 0 -83 19 -127 62 -138
19 -5 43 -5 57 0 13 5 27 5 30 0 3 -4 31 -8 61 -8 l55 1 -3 65 c-3 75 7 101
32 81 20 -17 46 -7 46 17 0 22 -42 47 -64 39 -8 -3 -18 -2 -21 3 -7 11 -8 11
-70 1z m22 -158 c-3 -10 -5 -2 -5 17 0 19 2 27 5 18 2 -10 2 -26 0 -35z"/>
<path d="M9473 2904 c-30 -15 -53 -55 -53 -91 0 -34 33 -82 62 -92 37 -13 94
0 130 28 22 19 22 21 6 37 -17 17 -18 17 -37 0 -13 -12 -31 -16 -57 -14 l-37
3 61 43 c34 24 62 49 62 56 0 38 -85 57 -137 30z m32 -54 c-32 -21 -45 -19
-25 5 7 8 22 15 34 15 19 0 18 -2 -9 -20z"/>
<path d="M4445 2815 c-29 -28 -33 -79 -9 -113 26 -37 134 -24 134 16 0 20 -19
23 -44 7 -34 -23 -68 -5 -64 33 2 21 9 28 31 30 16 2 34 -2 42 -8 11 -9 16 -7
24 9 9 16 7 23 -11 35 -33 23 -75 20 -103 -9z"/>
<path d="M4580 2759 c0 -79 0 -79 26 -79 26 0 26 1 19 55 -5 45 -4 55 8 55 19
0 27 -21 27 -71 0 -32 3 -39 20 -39 18 0 20 7 20 55 0 72 14 70 26 -2 6 -41
13 -58 24 -58 11 0 16 14 18 54 2 30 1 65 -2 77 -7 27 -38 39 -65 25 -11 -6
-22 -7 -25 -3 -3 5 -26 9 -51 10 l-45 0 0 -79z"/>
<path d="M3432 2755 c3 -31 10 -61 17 -68 9 -9 105 -11 394 -9 210 1 389 5
399 8 21 6 26 21 20 67 -6 50 -26 47 -38 -5 l-9 -43 -359 0 c-225 0 -363 4
-371 10 -6 6 -17 29 -24 53 -17 61 -34 54 -29 -13z"/>
<path d="M8311 2695 c-82 -66 -589 -324 -791 -403 -107 -42 -296 -109 -382
-136 -49 -15 -88 -28 -88 -30 0 -2 17 -14 37 -26 46 -27 42 -27 312 55 209 64
263 87 631 268 47 23 142 77 213 120 l127 79 0 54 c0 30 -3 54 -7 54 -5 0 -28
-16 -52 -35z"/>
<path d="M9257 2501 l-97 -6 -6 -150 c-6 -159 2 -282 16 -234 4 15 11 104 15
198 l7 171 205 0 205 0 -7 -167 c-5 -105 -12 -171 -19 -175 -6 -4 -48 -8 -94
-8 -99 0 -271 -18 -292 -31 -35 -20 362 1 400 21 22 12 27 39 41 208 6 75 15
144 19 153 7 14 0 17 -43 23 -57 6 -198 5 -350 -3z"/>
<path d="M4975 2074 c-3 -26 -3 -50 2 -55 9 -9 42 -23 233 -99 127 -50 320
-102 325 -87 2 7 11 36 20 65 9 29 15 54 14 56 -2 1 -47 13 -99 25 -102 25
-322 90 -408 122 -75 27 -79 26 -87 -27z"/>
<path d="M4310 1997 c0 -9 87 -119 163 -205 150 -171 374 -292 622 -337 44 -8
118 -21 165 -30 77 -14 123 -14 203 1 24 5 27 10 27 42 l0 37 -158 1 c-136 1
-170 5 -257 28 -204 54 -385 165 -542 330 -83 88 -105 106 -143 116 -25 6 -53
13 -62 16 -10 3 -18 4 -18 1z"/>
<path d="M5880 1570 l0 -131 78 3 c76 3 77 3 80 31 3 26 2 27 -47 27 l-50 0
-3 98 -3 97 -27 3 -28 3 0 -131z"/>
<path d="M6073 1629 c-38 -24 -39 -26 -16 -51 13 -14 14 -21 5 -30 -18 -18
-14 -56 8 -78 28 -28 64 -34 100 -17 25 13 30 13 30 1 0 -10 15 -14 60 -14
l60 0 0 75 c0 67 2 75 19 75 11 0 21 -6 24 -12 3 -10 7 -10 20 1 41 33 -1 70
-77 68 l-49 -2 1 -100 c0 -96 0 -98 -8 -38 -5 35 -15 75 -22 90 -26 54 -98 68
-155 32z m101 -38 c3 -5 -14 -11 -39 -13 -39 -3 -43 -1 -28 9 20 15 59 17 67
4z m-3 -75 c-15 -18 -49 -27 -57 -14 -8 13 15 28 45 28 19 0 21 -3 12 -14z"/>
<path d="M6454 1640 c-50 -19 -70 -96 -38 -145 17 -27 71 -46 104 -38 15 4 20
0 20 -15 0 -34 -32 -45 -82 -27 -39 13 -44 13 -55 -2 -20 -26 -17 -30 34 -47
55 -19 83 -20 117 -5 28 13 36 34 36 104 1 50 1 50 16 23 28 -53 89 -63 155
-26 42 23 49 41 22 57 -12 6 -20 5 -28 -6 -12 -16 -95 -31 -95 -17 0 5 27 26
60 48 86 55 77 96 -20 96 -51 0 -75 -12 -94 -48 l-15 -27 -1 41 0 41 -57 0
c-32 0 -68 -3 -79 -7z m80 -52 c17 -56 16 -66 -10 -71 -14 -2 -35 -2 -45 0
-24 7 -35 48 -19 68 15 18 69 20 74 3z m151 -8 c-16 -11 -33 -20 -37 -20 -14
0 4 29 20 33 39 10 45 6 17 -13z"/>
<path d="M6811 1641 c-19 -12 -9 -132 13 -166 20 -30 60 -42 98 -27 16 6 28 6
28 1 0 -5 28 -9 61 -9 l62 0 -7 70 c-5 58 -3 72 9 76 8 4 22 0 31 -7 13 -10
17 -10 25 2 26 42 -8 68 -91 67 -97 0 -98 -1 -93 -56 4 -38 1 -52 -17 -74 -12
-16 -30 -28 -41 -28 -21 0 -28 20 -31 100 -3 56 -16 71 -47 51z m196 -158 c-2
-16 -4 -5 -4 22 0 28 2 40 4 28 2 -13 2 -35 0 -50z"/>
<path d="M6933 1092 c-40 -30 -39 -108 1 -134 38 -26 147 15 119 43 -10 10
-18 10 -36 0 -34 -18 -71 -11 -75 15 -4 28 25 57 47 48 50 -21 86 12 36 34
-36 17 -66 15 -92 -6z"/>
<path d="M7062 1029 c3 -74 4 -79 25 -79 20 0 22 6 25 55 2 30 8 55 13 55 6 0
11 -25 13 -55 3 -47 6 -55 22 -55 17 0 20 7 20 55 0 42 3 55 15 55 11 0 15
-13 15 -54 0 -41 4 -55 17 -60 28 -11 35 9 28 78 -9 77 -23 95 -66 79 -16 -6
-31 -8 -34 -4 -2 4 -25 8 -50 9 l-46 0 3 -79z"/>
<path d="M6736 1024 c-3 -9 -6 -26 -6 -38 0 -22 -5 -24 -72 -29 -157 -14 -330
-17 -477 -10 l-154 8 -11 32 c-16 47 -26 51 -26 10 0 -60 20 -67 232 -77 210
-9 501 2 523 20 9 8 15 30 15 56 0 44 -12 58 -24 28z"/>
</g>
</svg>
